<svg version="1.1" id="Layer_1" xmlns="http://www.w3.org/2000/svg" xmlns:xlink="http://www.w3.org/1999/xlink" x="0px" y="0px"
	 width="100%" viewBox="0 0 1086 1200" enable-background="new 0 0 1086 1200" xml:space="preserve">
<path fill="#000000" opacity="1.000000" stroke="none" 
	d="
M1087.000000,1067.000000 
	C1087.000000,1111.614868 1087.000000,1156.229858 1087.000000,1201.000000 
	C1010.307556,1201.000000 933.615051,1201.000000 856.543762,1200.655884 
	C859.031677,1195.848267 861.426086,1190.979736 864.846985,1186.991577 
	C879.391479,1170.035278 897.456543,1159.838989 920.332458,1159.950806 
	C931.950439,1160.007568 937.737976,1164.993530 940.052002,1176.339111 
	C940.724915,1179.637939 940.995483,1183.018921 941.450378,1186.362183 
	C941.977234,1186.563354 942.504089,1186.764648 943.030945,1186.965820 
	C947.060181,1179.630981 951.731262,1172.559570 954.890015,1164.867310 
	C956.949524,1159.851685 958.182129,1153.730347 957.399536,1148.458496 
	C955.100586,1132.970825 944.775452,1124.395020 928.960632,1125.110596 
	C919.466248,1125.540161 909.969177,1127.723633 900.676575,1129.962402 
	C896.606323,1130.942993 894.668152,1130.406616 892.891113,1126.779175 
	C890.185242,1121.255249 887.120117,1115.905762 884.165161,1110.505493 
	C875.162292,1094.052734 866.139038,1077.610962 857.059143,1061.047119 
	C858.274902,1060.147095 859.135193,1059.365723 860.120239,1058.802734 
	C875.136658,1050.219604 890.207397,1041.730347 905.152344,1033.025024 
	C907.109863,1031.884766 909.606018,1029.834229 909.873169,1027.927979 
	C911.478271,1016.471863 912.994751,1004.961243 913.619507,993.419067 
	C914.762634,972.296692 912.702026,951.288574 909.297607,930.469971 
	C902.900452,891.350464 889.203430,854.788208 870.117065,820.102661 
	C852.446899,787.990845 830.922302,758.718994 805.278809,732.647522 
	C789.433044,716.537415 772.378784,701.616821 755.884888,686.143188 
	C742.661621,673.738037 729.498413,661.268921 716.249329,648.891541 
	C693.529602,627.666443 670.759094,606.495789 648.018799,585.292603 
	C635.976135,574.063904 623.962952,562.803650 611.917847,551.577637 
	C589.415527,530.605591 566.890747,509.657684 544.393860,488.679871 
	C535.755981,480.625275 527.200256,472.482483 518.552612,464.438416 
	C496.884003,444.282227 475.155579,424.190277 453.507629,404.011932 
	C440.245270,391.649902 427.123901,379.136749 413.874329,366.760925 
	C391.153015,345.537964 368.371399,324.379578 345.633850,303.173981 
	C333.348846,291.716675 321.138245,280.179413 308.830994,268.746155 
	C287.760590,249.172028 266.597504,229.697525 245.556717,210.091690 
	C231.682343,197.163544 217.999680,184.029800 204.149918,171.074982 
	C181.200729,149.608734 158.204361,128.192810 135.189896,106.796547 
	C126.058350,98.307076 116.813461,89.939636 107.641632,81.493362 
	C95.772255,70.562935 85.015343,58.817703 80.596848,42.720806 
	C77.367256,30.955114 75.265114,19.091211 79.337738,6.816060 
	C80.416328,4.755557 81.208160,2.877777 82.000000,0.999999 
	C416.931000,1.000000 751.862000,1.000000 1087.000000,1.000000 
	C1087.000000,350.025818 1087.000000,699.051636 1086.652710,1048.552979 
	C1075.658936,1038.368164 1065.106445,1027.611084 1054.297852,1017.117615 
	C1051.683350,1014.579163 1050.941528,1012.514160 1052.048706,1008.901794 
	C1057.768677,990.239685 1055.321533,972.527893 1043.477661,956.959167 
	C1037.897095,949.623657 1030.733398,943.429932 1023.937744,937.093506 
	C1004.245239,918.731628 984.376526,900.558533 964.575439,882.313110 
	C944.653625,863.956604 924.763428,845.565613 904.778992,827.277588 
	C900.759705,823.599426 896.379517,820.315735 892.163940,816.429810 
	C892.808289,812.458740 893.697937,808.932678 894.060120,805.353210 
	C896.142273,784.777466 899.303833,764.265320 897.099609,743.454651 
	C895.878906,731.930115 895.646790,720.286804 894.105469,708.812988 
	C889.035461,671.070984 876.881714,635.468872 860.498413,601.236084 
	C848.257507,575.658936 834.173950,551.073242 817.117615,528.454285 
	C800.629456,506.588715 783.089905,485.500916 765.617676,464.398071 
	C755.344910,451.990570 744.300232,440.222412 733.608704,428.161377 
	C720.052795,412.869019 706.521851,397.554504 692.944824,382.280884 
	C681.683167,369.611969 670.346008,357.010193 659.086609,344.339355 
	C645.512756,329.063873 632.017517,313.718445 618.428345,298.456573 
	C606.935913,285.549469 595.307312,272.763458 583.830627,259.842438 
	C568.392578,242.461639 553.096802,224.954376 537.639709,207.590668 
	C521.841248,189.843521 505.862274,172.257095 490.069550,154.504898 
	C468.093964,129.802658 446.169617,105.054405 424.317230,80.243111 
	C410.501221,64.556313 400.816467,47.418228 406.556519,24.915794 
	C405.820496,25.519175 405.309082,25.733561 405.144592,26.102591 
	C393.232483,52.827507 381.170319,79.488342 369.615845,106.367401 
	C367.391296,111.542351 365.443146,117.902748 366.432465,123.136963 
	C367.836700,130.566330 370.557037,138.780304 375.381531,144.348724 
	C394.965790,166.952942 415.468384,188.767868 435.830536,210.689728 
	C450.321381,226.290543 465.099457,241.625381 479.802460,257.028198 
	C502.554504,280.863159 525.361694,304.645508 548.126526,328.468231 
	C563.990479,345.069336 579.801697,361.720703 595.673950,378.313782 
	C619.140320,402.845978 642.613892,427.371399 666.134827,451.851257 
	C681.357300,467.694397 696.679077,483.442108 711.937134,499.251099 
	C717.598694,505.117218 723.363525,510.896057 728.769958,516.990845 
	C731.431824,519.991638 734.714783,523.398254 735.322876,527.022949 
	C736.089661,531.593323 734.411377,536.573975 733.787964,541.377563 
	C733.155640,541.741150 732.523376,542.104736 731.891113,542.468323 
	C730.651794,540.702026 729.642883,538.705566 728.140381,537.202393 
	C623.512634,432.528595 518.810730,327.928864 414.287170,223.151215 
	C409.207336,218.059006 405.264954,211.675049 401.509766,205.459534 
	C397.133392,198.215820 395.076538,190.106094 395.554596,181.373108 
	C394.684723,182.080627 394.308105,182.753510 393.995331,183.454849 
	C384.242676,205.326294 374.577606,227.237320 364.711975,249.057648 
	C360.258179,258.908295 360.236938,268.637543 366.005951,277.652405 
	C369.907928,283.749725 374.665283,289.502319 379.903564,294.504913 
	C397.577087,311.383240 415.667999,327.823761 433.537781,344.497620 
	C446.913971,356.978638 460.149658,369.610229 473.529083,382.087677 
	C495.415436,402.498535 517.379028,422.826538 539.288513,443.212616 
	C554.748169,457.597321 570.200317,471.990295 585.605774,486.433014 
	C611.330627,510.550201 637.015076,534.710510 662.717346,558.851807 
	C671.565430,567.162476 680.379089,575.510315 689.272766,583.771851 
	C710.349426,603.350525 731.490051,622.860352 752.554688,642.451904 
	C765.344238,654.346985 777.713989,666.715820 790.857239,678.202576 
	C809.221130,694.251892 825.739075,711.936340 840.521729,731.270691 
	C860.921814,757.951904 878.194824,786.497803 891.524353,817.792114 
	C921.670837,886.364319 926.964111,957.461609 915.302673,1030.499878 
	C930.391663,1033.381348 944.545044,1036.184204 958.744995,1038.725952 
	C962.320190,1039.365845 964.980652,1040.586914 966.329895,1044.145142 
	C967.842224,1048.133179 970.890381,1049.729492 975.109497,1050.270630 
	C982.837158,1051.261353 990.602112,1052.353760 998.158447,1054.195557 
	C1009.089539,1056.859985 1020.196899,1059.361694 1030.587769,1063.530884 
	C1041.976196,1068.100220 1044.285645,1080.221802 1036.865723,1090.006348 
	C1035.507324,1091.797729 1034.111328,1093.560547 1031.998657,1096.282227 
	C1046.217651,1093.207764 1058.805786,1089.007202 1069.936890,1081.585938 
	C1076.118530,1077.464722 1081.343750,1071.909180 1087.000000,1067.000000 
M918.707397,817.958740 
	C923.894958,816.133362 925.620789,813.522278 925.226990,807.863464 
	C924.921204,803.470215 922.849426,800.265076 918.429016,799.174133 
	C912.723877,797.766052 909.310730,799.284851 906.449158,804.539490 
	C904.221619,808.578003 905.356506,812.078857 907.882324,815.593933 
	C910.662537,819.462952 914.130066,819.249268 918.707397,817.958740 
z"/>
<path fill="#00853E" opacity="1.000000" stroke="none" 
	d="
M79.050980,6.998783 
	C75.265114,19.091211 77.367256,30.955114 80.596848,42.720806 
	C85.015343,58.817703 95.772255,70.562935 107.641632,81.493362 
	C116.813461,89.939636 126.058350,98.307076 135.189896,106.796547 
	C158.204361,128.192810 181.200729,149.608734 204.149918,171.074982 
	C217.999680,184.029800 231.682343,197.163544 245.556717,210.091690 
	C266.597504,229.697525 287.760590,249.172028 308.830994,268.746155 
	C321.138245,280.179413 333.348846,291.716675 345.633850,303.173981 
	C368.371399,324.379578 391.153015,345.537964 413.874329,366.760925 
	C427.123901,379.136749 440.245270,391.649902 453.507629,404.011932 
	C475.155579,424.190277 496.884003,444.282227 518.552612,464.438416 
	C527.200256,472.482483 535.755981,480.625275 544.393860,488.679871 
	C566.890747,509.657684 589.415527,530.605591 611.917847,551.577637 
	C623.962952,562.803650 635.976135,574.063904 648.018799,585.292603 
	C670.759094,606.495789 693.529602,627.666443 716.249329,648.891541 
	C729.498413,661.268921 742.661621,673.738037 755.884888,686.143188 
	C772.378784,701.616821 789.433044,716.537415 805.278809,732.647522 
	C830.922302,758.718994 852.446899,787.990845 870.117065,820.102661 
	C889.203430,854.788208 902.900452,891.350464 909.297607,930.469971 
	C912.702026,951.288574 914.762634,972.296692 913.619507,993.419067 
	C912.994751,1004.961243 911.478271,1016.471863 909.873169,1027.927979 
	C909.606018,1029.834229 907.109863,1031.884766 905.152344,1033.025024 
	C890.207397,1041.730347 875.136658,1050.219604 860.120239,1058.802734 
	C859.135193,1059.365723 858.274902,1060.147095 857.059143,1061.047119 
	C866.139038,1077.610962 875.162292,1094.052734 884.165161,1110.505493 
	C887.120117,1115.905762 890.185242,1121.255249 892.891113,1126.779175 
	C894.668152,1130.406616 896.606323,1130.942993 900.676575,1129.962402 
	C909.969177,1127.723633 919.466248,1125.540161 928.960632,1125.110596 
	C944.775452,1124.395020 955.100586,1132.970825 957.399536,1148.458496 
	C958.182129,1153.730347 956.949524,1159.851685 954.890015,1164.867310 
	C951.731262,1172.559570 947.060181,1179.630981 943.030945,1186.965820 
	C942.504089,1186.764648 941.977234,1186.563354 941.450378,1186.362183 
	C940.995483,1183.018921 940.724915,1179.637939 940.052002,1176.339111 
	C937.737976,1164.993530 931.950439,1160.007568 920.332458,1159.950806 
	C897.456543,1159.838989 879.391479,1170.035278 864.846985,1186.991577 
	C861.426086,1190.979736 859.031677,1195.848267 856.082520,1200.655884 
	C855.555542,1201.000000 855.111084,1201.000000 854.326050,1200.629150 
	C847.321716,1186.222900 846.714233,1172.494629 856.228943,1159.510620 
	C855.889343,1158.991211 855.773010,1158.615967 855.520142,1158.454712 
	C818.356140,1134.755981 784.979553,1106.520874 754.330322,1074.889282 
	C736.481445,1056.468384 719.939575,1037.015259 704.662048,1016.441895 
	C703.645996,1015.073669 702.010803,1013.950134 700.426025,1013.252014 
	C680.508484,1004.477356 660.479980,995.950562 640.652527,986.978638 
	C636.591553,985.141052 633.129883,985.369202 629.232971,986.593140 
	C599.259521,996.006653 569.312378,1005.507568 539.271301,1014.700928 
	C516.124390,1021.784424 493.262177,1029.692383 468.682220,1031.396118 
	C453.586884,1032.442505 440.353668,1028.983521 429.524170,1019.368042 
	C413.492310,1005.133240 398.567627,989.651489 383.411407,974.487671 
	C383.810059,974.131470 383.968842,973.988281 384.475952,973.935913 
	C399.801636,981.361206 415.232483,984.643250 431.959808,980.860229 
	C464.174225,973.574768 496.488495,966.731079 528.757202,959.685242 
	C539.039429,957.440063 549.308533,955.135254 561.000977,952.543701 
	C551.363831,948.604004 544.138672,943.604492 533.939209,945.539246 
	C506.918701,950.664795 479.704620,954.799377 452.518860,959.014099 
	C434.831421,961.756226 417.038635,963.812378 399.331329,966.434326 
	C387.650757,968.164001 377.019928,965.537720 367.832703,958.539429 
	C360.189911,952.717529 353.231964,945.972900 346.158112,939.434204 
	C339.071655,932.883911 332.183472,926.117188 325.272980,919.379150 
	C320.519379,914.744141 315.876007,909.996094 311.183350,905.298645 
	C317.952698,907.345642 323.908295,910.215637 329.990204,912.786865 
	C343.658508,918.565491 357.866302,915.634338 371.838684,914.805115 
	C391.172485,913.657715 410.461700,911.762634 429.771179,910.202271 
	C438.875366,909.466614 447.982239,908.764343 458.480865,907.937256 
	C446.825348,901.800781 436.479675,898.293518 424.419067,898.541382 
	C391.605164,899.215637 358.768280,898.782227 325.940552,898.752747 
	C323.623779,898.750671 321.290466,898.591248 318.993408,898.288208 
	C304.108765,896.324646 292.471893,888.260986 281.877869,878.321777 
	C268.537781,865.806091 255.231552,853.254211 241.948044,840.678528 
	C239.705948,838.555847 237.651871,836.234619 235.510941,834.005066 
	C235.744949,833.655090 235.978958,833.305176 236.212967,832.955200 
	C239.053238,834.047424 241.887650,835.155212 244.734726,836.229492 
	C260.536804,842.191650 277.138885,843.355347 293.718445,843.388794 
	C394.367615,843.592102 495.017365,843.500183 595.878906,843.539551 
	C596.039978,843.069702 595.989014,842.567139 595.626526,841.923340 
	C563.884277,823.064453 532.453003,804.347595 501.022888,785.628784 
	C455.018097,758.229736 409.006866,730.841492 363.011536,703.426575 
	C308.734558,671.075439 254.465485,638.710999 200.204407,606.333252 
	C154.219864,578.894043 108.262260,551.409668 62.269661,523.984009 
	C48.122341,515.547852 33.803761,507.424255 22.272951,495.290344 
	C11.133596,483.568390 8.083306,469.234253 14.115488,456.489746 
	C26.141403,431.082001 38.006676,405.598236 49.955597,380.153961 
	C50.334743,379.346588 50.904015,378.628479 52.001022,376.894501 
	C52.767704,382.209229 53.143154,386.476776 54.027256,390.636230 
	C56.972446,404.492401 63.360264,415.874908 75.941513,423.646027 
	C92.069542,433.607849 107.751640,444.295441 123.564789,454.762604 
	C173.370438,487.730286 223.158432,520.724609 272.932129,553.740601 
	C310.922363,578.940308 348.892151,604.170898 386.850311,629.418945 
	C455.007660,674.754028 523.147339,720.115723 591.302612,765.453918 
	C595.527893,768.264709 599.824768,770.967896 605.187927,774.431213 
	C604.013855,768.735840 602.858704,764.436279 602.301514,760.060608 
	C601.749817,755.727478 599.634827,753.053589 596.023499,750.614502 
	C580.455994,740.100525 565.103394,729.267822 549.691101,718.524536 
	C516.000549,695.040344 482.336548,671.517944 448.632721,648.052673 
	C418.477203,627.057861 388.268890,606.138733 358.109314,585.149658 
	C321.260620,559.505371 284.449738,533.806824 247.601349,508.162079 
	C217.033539,486.888336 186.434402,465.659637 155.850449,444.409119 
	C119.533241,419.175018 83.241325,393.904419 46.889477,368.720306 
	C31.916553,358.347290 17.483734,347.424622 7.888957,331.484528 
	C5.292232,327.170532 3.280335,322.504456 1.000003,318.000000 
	C1.000000,309.979095 1.000000,301.958191 1.353347,293.405334 
	C15.317540,264.191254 28.928387,235.509109 42.539234,206.826981 
	C43.928806,210.910278 43.645210,214.626312 44.363430,218.137405 
	C48.078468,236.298706 57.478458,250.472519 72.509453,261.814941 
	C119.729973,297.447662 166.449387,333.744171 213.386902,369.752258 
	C269.819031,413.044220 326.283081,456.294647 382.719696,499.580780 
	C422.943359,530.431763 463.152618,561.301453 503.352783,592.183044 
	C527.072388,610.404358 550.747375,628.683655 574.472595,646.897583 
	C582.203369,652.832458 590.029480,658.643250 599.025208,665.425415 
	C598.618347,659.677612 598.506226,655.293152 597.900024,650.978210 
	C597.673767,649.367554 596.648743,647.482483 595.389282,646.459961 
	C559.670166,617.462463 523.868042,588.567261 488.093323,559.638184 
	C459.027863,536.134521 429.974640,512.615723 400.926300,489.090973 
	C362.326263,457.830811 323.754333,426.535889 285.136200,395.298126 
	C253.237091,369.495270 221.265503,343.782043 189.367554,317.977753 
	C152.038986,287.780304 114.719307,257.571655 77.471436,227.274811 
	C63.946751,216.274048 49.992287,205.687286 37.378166,193.706848 
	C15.658895,173.078674 11.736125,146.322418 24.959406,119.365639 
	C28.402559,112.346474 31.547527,105.180031 34.781944,98.059647 
	C48.607937,67.622513 62.411812,37.175346 76.246765,6.742297 
	C76.797729,5.530334 77.582253,4.424553 78.666153,2.571403 
	C78.850754,4.695155 78.950867,5.846969 79.050980,6.998783 
z"/>
<path fill="#000000" opacity="1.000000" stroke="none" 
	d="
M595.666931,843.506775 
	C495.017365,843.500183 394.367615,843.592102 293.718445,843.388794 
	C277.138885,843.355347 260.536804,842.191650 244.734726,836.229492 
	C241.887650,835.155212 239.053238,834.047424 236.212967,832.955200 
	C235.978958,833.305176 235.744949,833.655090 235.510941,834.005066 
	C237.651871,836.234619 239.705948,838.555847 241.948044,840.678528 
	C255.231552,853.254211 268.537781,865.806091 281.877869,878.321777 
	C292.471893,888.260986 304.108765,896.324646 318.993408,898.288208 
	C321.290466,898.591248 323.623779,898.750671 325.940552,898.752747 
	C358.768280,898.782227 391.605164,899.215637 424.419067,898.541382 
	C436.479675,898.293518 446.825348,901.800781 458.480865,907.937256 
	C447.982239,908.764343 438.875366,909.466614 429.771179,910.202271 
	C410.461700,911.762634 391.172485,913.657715 371.838684,914.805115 
	C357.866302,915.634338 343.658508,918.565491 329.990204,912.786865 
	C323.908295,910.215637 317.952698,907.345642 311.183350,905.298645 
	C315.876007,909.996094 320.519379,914.744141 325.272980,919.379150 
	C332.183472,926.117188 339.071655,932.883911 346.158112,939.434204 
	C353.231964,945.972900 360.189911,952.717529 367.832703,958.539429 
	C377.019928,965.537720 387.650757,968.164001 399.331329,966.434326 
	C417.038635,963.812378 434.831421,961.756226 452.518860,959.014099 
	C479.704620,954.799377 506.918701,950.664795 533.939209,945.539246 
	C544.138672,943.604492 551.363831,948.604004 561.000977,952.543701 
	C549.308533,955.135254 539.039429,957.440063 528.757202,959.685242 
	C496.488495,966.731079 464.174225,973.574768 431.959808,980.860229 
	C415.232483,984.643250 399.801636,981.361206 384.332123,973.695496 
	C383.350250,973.111938 382.860596,972.859558 382.222168,972.491821 
	C381.918793,972.385986 381.764221,972.395630 381.609619,972.405212 
	C381.689087,972.649780 381.768585,972.894287 381.931030,973.390259 
	C382.399811,973.994690 382.785675,974.347656 383.171570,974.700623 
	C398.567627,989.651489 413.492310,1005.133240 429.524170,1019.368042 
	C440.353668,1028.983521 453.586884,1032.442505 468.682220,1031.396118 
	C493.262177,1029.692383 516.124390,1021.784424 539.271301,1014.700928 
	C569.312378,1005.507568 599.259521,996.006653 629.232971,986.593140 
	C633.129883,985.369202 636.591553,985.141052 640.652527,986.978638 
	C660.479980,995.950562 680.508484,1004.477356 700.426025,1013.252014 
	C702.010803,1013.950134 703.645996,1015.073669 704.662048,1016.441895 
	C719.939575,1037.015259 736.481445,1056.468384 754.330322,1074.889282 
	C784.979553,1106.520874 818.356140,1134.755981 855.520142,1158.454712 
	C855.773010,1158.615967 855.889343,1158.991211 856.228943,1159.510620 
	C846.714233,1172.494629 847.321716,1186.222900 853.992676,1200.629150 
	C569.738281,1201.000000 285.476532,1201.000000 1.000000,1201.000000 
	C1.000000,906.979126 1.000000,612.958252 1.000003,318.468658 
	C3.280335,322.504456 5.292232,327.170532 7.888957,331.484528 
	C17.483734,347.424622 31.916553,358.347290 46.889477,368.720306 
	C83.241325,393.904419 119.533241,419.175018 155.850449,444.409119 
	C186.434402,465.659637 217.033539,486.888336 247.601349,508.162079 
	C284.449738,533.806824 321.260620,559.505371 358.109314,585.149658 
	C388.268890,606.138733 418.477203,627.057861 448.632721,648.052673 
	C482.336548,671.517944 516.000549,695.040344 549.691101,718.524536 
	C565.103394,729.267822 580.455994,740.100525 596.023499,750.614502 
	C599.634827,753.053589 601.749817,755.727478 602.301514,760.060608 
	C602.858704,764.436279 604.013855,768.735840 605.187927,774.431213 
	C599.824768,770.967896 595.527893,768.264709 591.302612,765.453918 
	C523.147339,720.115723 455.007660,674.754028 386.850311,629.418945 
	C348.892151,604.170898 310.922363,578.940308 272.932129,553.740601 
	C223.158432,520.724609 173.370438,487.730286 123.564789,454.762604 
	C107.751640,444.295441 92.069542,433.607849 75.941513,423.646027 
	C63.360264,415.874908 56.972446,404.492401 54.027256,390.636230 
	C53.143154,386.476776 52.767704,382.209229 52.001022,376.894501 
	C50.904015,378.628479 50.334743,379.346588 49.955597,380.153961 
	C38.006676,405.598236 26.141403,431.082001 14.115488,456.489746 
	C8.083306,469.234253 11.133596,483.568390 22.272951,495.290344 
	C33.803761,507.424255 48.122341,515.547852 62.269661,523.984009 
	C108.262260,551.409668 154.219864,578.894043 200.204407,606.333252 
	C254.465485,638.710999 308.734558,671.075439 363.011536,703.426575 
	C409.006866,730.841492 455.018097,758.229736 501.022888,785.628784 
	C532.453003,804.347595 563.884277,823.064453 595.604858,842.167603 
	C595.801697,842.866943 595.725830,843.184875 595.666931,843.506775 
M234.544128,832.772339 
	C234.643417,832.697021 234.742691,832.621704 234.841934,832.546387 
	C234.765701,832.448059 234.698288,832.281555 234.610748,832.270264 
	C234.522568,832.258850 234.414429,832.401611 234.544128,832.772339 
z"/>
<path fill="#000101" opacity="1.000000" stroke="none" 
	d="
M79.337738,6.816060 
	C78.950867,5.846969 78.850754,4.695155 78.666153,2.571403 
	C77.582253,4.424553 76.797729,5.530334 76.246765,6.742297 
	C62.411812,37.175346 48.607937,67.622513 34.781944,98.059647 
	C31.547527,105.180031 28.402559,112.346474 24.959406,119.365639 
	C11.736125,146.322418 15.658895,173.078674 37.378166,193.706848 
	C49.992287,205.687286 63.946751,216.274048 77.471436,227.274811 
	C114.719307,257.571655 152.038986,287.780304 189.367554,317.977753 
	C221.265503,343.782043 253.237091,369.495270 285.136200,395.298126 
	C323.754333,426.535889 362.326263,457.830811 400.926300,489.090973 
	C429.974640,512.615723 459.027863,536.134521 488.093323,559.638184 
	C523.868042,588.567261 559.670166,617.462463 595.389282,646.459961 
	C596.648743,647.482483 597.673767,649.367554 597.900024,650.978210 
	C598.506226,655.293152 598.618347,659.677612 599.025208,665.425415 
	C590.029480,658.643250 582.203369,652.832458 574.472595,646.897583 
	C550.747375,628.683655 527.072388,610.404358 503.352783,592.183044 
	C463.152618,561.301453 422.943359,530.431763 382.719696,499.580780 
	C326.283081,456.294647 269.819031,413.044220 213.386902,369.752258 
	C166.449387,333.744171 119.729973,297.447662 72.509453,261.814941 
	C57.478458,250.472519 48.078468,236.298706 44.363430,218.137405 
	C43.645210,214.626312 43.928806,210.910278 42.539234,206.826981 
	C28.928387,235.509109 15.317540,264.191254 1.353347,292.936707 
	C1.000000,195.780914 1.000000,98.561844 1.000000,1.000000 
	C27.686583,1.000000 54.374634,1.000000 81.531342,0.999999 
	C81.208160,2.877777 80.416328,4.755557 79.337738,6.816060 
z"/>
<path fill="#00853E" opacity="1.000000" stroke="none" 
	d="
M1087.000000,1066.531982 
	C1081.343750,1071.909180 1076.118530,1077.464722 1069.936890,1081.585938 
	C1058.805786,1089.007202 1046.217651,1093.207764 1031.998657,1096.282227 
	C1034.111328,1093.560547 1035.507324,1091.797729 1036.865723,1090.006348 
	C1044.285645,1080.221802 1041.976196,1068.100220 1030.587769,1063.530884 
	C1020.196899,1059.361694 1009.089539,1056.859985 998.158447,1054.195557 
	C990.602112,1052.353760 982.837158,1051.261353 975.109497,1050.270630 
	C970.890381,1049.729492 967.842224,1048.133179 966.329895,1044.145142 
	C964.980652,1040.586914 962.320190,1039.365845 958.744995,1038.725952 
	C944.545044,1036.184204 930.391663,1033.381348 915.302673,1030.499878 
	C926.964111,957.461609 921.670837,886.364319 891.727295,817.640259 
	C891.895935,817.053711 892.030823,816.951904 892.165710,816.850098 
	C896.379517,820.315735 900.759705,823.599426 904.778992,827.277588 
	C924.763428,845.565613 944.653625,863.956604 964.575439,882.313110 
	C984.376526,900.558533 1004.245239,918.731628 1023.937744,937.093506 
	C1030.733398,943.429932 1037.897095,949.623657 1043.477661,956.959167 
	C1055.321533,972.527893 1057.768677,990.239685 1052.048706,1008.901794 
	C1050.941528,1012.514160 1051.683350,1014.579163 1054.297852,1017.117615 
	C1065.106445,1027.611084 1075.658936,1038.368164 1086.652710,1049.014282 
	C1087.000000,1054.687988 1087.000000,1060.376099 1087.000000,1066.531982 
M1002.971924,971.252258 
	C1003.094116,971.241333 1003.216309,971.230347 1003.338501,971.219421 
	C1003.216370,971.150146 1003.094177,971.080872 1002.911255,970.879028 
	C1002.911255,970.879028 1002.819275,971.049072 1002.819275,971.049072 
	C1002.819275,971.049072 1003.076965,970.924866 1002.971924,971.252258 
M1039.687500,1004.836060 
	C1028.337524,994.176758 1016.987671,983.517456 1005.637756,972.858093 
	C1005.556885,973.063171 1005.475952,973.268250 1005.395081,973.473328 
	C1012.463440,987.433167 1019.531799,1001.393005 1026.636108,1015.423828 
	C1032.569824,1014.195129 1039.293457,1012.802856 1046.937866,1011.219971 
	C1044.347168,1008.940857 1042.281738,1007.123840 1039.687500,1004.836060 
z"/>
<path fill="#00853E" opacity="1.000000" stroke="none" 
	d="
M891.558105,817.307312 
	C878.194824,786.497803 860.921814,757.951904 840.521729,731.270691 
	C825.739075,711.936340 809.221130,694.251892 790.857239,678.202576 
	C777.713989,666.715820 765.344238,654.346985 752.554688,642.451904 
	C731.490051,622.860352 710.349426,603.350525 689.272766,583.771851 
	C680.379089,575.510315 671.565430,567.162476 662.717346,558.851807 
	C637.015076,534.710510 611.330627,510.550201 585.605774,486.433014 
	C570.200317,471.990295 554.748169,457.597321 539.288513,443.212616 
	C517.379028,422.826538 495.415436,402.498535 473.529083,382.087677 
	C460.149658,369.610229 446.913971,356.978638 433.537781,344.497620 
	C415.667999,327.823761 397.577087,311.383240 379.903564,294.504913 
	C374.665283,289.502319 369.907928,283.749725 366.005951,277.652405 
	C360.236938,268.637543 360.258179,258.908295 364.711975,249.057648 
	C374.577606,227.237320 384.242676,205.326294 393.995331,183.454849 
	C394.308105,182.753510 394.684723,182.080627 395.554596,181.373108 
	C395.076538,190.106094 397.133392,198.215820 401.509766,205.459534 
	C405.264954,211.675049 409.207336,218.059006 414.287170,223.151215 
	C518.810730,327.928864 623.512634,432.528595 728.140381,537.202393 
	C729.642883,538.705566 730.651794,540.702026 731.891113,542.468323 
	C732.523376,542.104736 733.155640,541.741150 733.787964,541.377563 
	C734.411377,536.573975 736.089661,531.593323 735.322876,527.022949 
	C734.714783,523.398254 731.431824,519.991638 728.769958,516.990845 
	C723.363525,510.896057 717.598694,505.117218 711.937134,499.251099 
	C696.679077,483.442108 681.357300,467.694397 666.134827,451.851257 
	C642.613892,427.371399 619.140320,402.845978 595.673950,378.313782 
	C579.801697,361.720703 563.990479,345.069336 548.126526,328.468231 
	C525.361694,304.645508 502.554504,280.863159 479.802460,257.028198 
	C465.099457,241.625381 450.321381,226.290543 435.830536,210.689728 
	C415.468384,188.767868 394.965790,166.952942 375.381531,144.348724 
	C370.557037,138.780304 367.836700,130.566330 366.432465,123.136963 
	C365.443146,117.902748 367.391296,111.542351 369.615845,106.367401 
	C381.170319,79.488342 393.232483,52.827507 405.144592,26.102591 
	C405.309082,25.733561 405.820496,25.519175 406.556519,24.915794 
	C400.816467,47.418228 410.501221,64.556313 424.317230,80.243111 
	C446.169617,105.054405 468.093964,129.802658 490.069550,154.504898 
	C505.862274,172.257095 521.841248,189.843521 537.639709,207.590668 
	C553.096802,224.954376 568.392578,242.461639 583.830627,259.842438 
	C595.307312,272.763458 606.935913,285.549469 618.428345,298.456573 
	C632.017517,313.718445 645.512756,329.063873 659.086609,344.339355 
	C670.346008,357.010193 681.683167,369.611969 692.944824,382.280884 
	C706.521851,397.554504 720.052795,412.869019 733.608704,428.161377 
	C744.300232,440.222412 755.344910,451.990570 765.617676,464.398071 
	C783.089905,485.500916 800.629456,506.588715 817.117615,528.454285 
	C834.173950,551.073242 848.257507,575.658936 860.498413,601.236084 
	C876.881714,635.468872 889.035461,671.070984 894.105469,708.812988 
	C895.646790,720.286804 895.878906,731.930115 897.099609,743.454651 
	C899.303833,764.265320 896.142273,784.777466 894.060120,805.353210 
	C893.697937,808.932678 892.808289,812.458740 892.163940,816.429810 
	C892.030823,816.951904 891.895935,817.053711 891.558105,817.307312 
z"/>
<path fill="#34825B" opacity="1.000000" stroke="none" 
	d="
M917.975220,817.902283 
	C914.130066,819.249268 910.662537,819.462952 907.882324,815.593933 
	C905.356506,812.078857 904.221619,808.578003 907.218750,804.396423 
	C908.355652,804.352417 908.722961,804.451477 908.993591,804.942749 
	C907.492310,810.434570 907.619812,811.000977 910.754639,813.398315 
	C910.829712,812.890747 910.959106,812.414612 910.960815,811.937988 
	C910.970154,809.338867 910.948059,806.739563 910.964417,803.821350 
	C911.013000,803.289917 911.033875,803.077515 911.474792,802.928955 
	C913.527344,803.053650 915.399353,802.641174 916.723328,803.311340 
	C917.987061,803.951172 919.167297,805.601257 919.508972,807.018311 
	C920.012878,809.108215 919.741150,811.385071 919.466980,813.666748 
	C917.529297,814.150879 915.924377,814.550659 914.319458,814.950378 
	C914.309143,815.326355 914.298828,815.702271 914.288513,816.078247 
	C915.517456,816.686279 916.746338,817.294250 917.975220,817.902283 
z"/>
<path fill="#307955" opacity="1.000000" stroke="none" 
	d="
M909.090210,804.550537 
	C908.722961,804.451477 908.355652,804.352417 907.437012,804.106506 
	C909.310730,799.284851 912.723877,797.766052 918.429016,799.174133 
	C922.849426,800.265076 924.921204,803.470215 925.226990,807.863464 
	C925.620789,813.522278 923.894958,816.133362 918.341309,817.930542 
	C916.746338,817.294250 915.517456,816.686279 914.288513,816.078247 
	C914.298828,815.702271 914.309143,815.326355 914.319458,814.950378 
	C915.924377,814.550659 917.529297,814.150879 919.772583,813.722656 
	C924.454346,810.329346 923.231079,806.768005 920.482727,803.500366 
	C917.713196,800.207581 914.395081,800.167847 911.054749,802.865051 
	C911.033875,803.077515 911.013000,803.289917 910.725342,803.812134 
	C910.002380,804.264771 909.546326,804.407654 909.090210,804.550537 
z"/>
<path fill="#004420" opacity="1.000000" stroke="none" 
	d="
M595.878906,843.539551 
	C595.725830,843.184875 595.801697,842.866943 595.916260,842.308838 
	C595.989014,842.567139 596.039978,843.069702 595.878906,843.539551 
z"/>
<path fill="#00853E" opacity="1.000000" stroke="none" 
	d="
M383.411377,974.487671 
	C382.785675,974.347656 382.399811,973.994690 382.061890,973.257507 
	C382.109802,972.873291 382.370972,972.607178 382.370972,972.607178 
	C382.860596,972.859558 383.350250,973.111938 383.983765,973.604675 
	C383.968842,973.988281 383.810059,974.131470 383.411377,974.487671 
z"/>
<path fill="#00853E" opacity="1.000000" stroke="none" 
	d="
M234.429565,832.624512 
	C234.414429,832.401611 234.522568,832.258850 234.610748,832.270264 
	C234.698288,832.281555 234.765701,832.448059 234.841949,832.546387 
	C234.742691,832.621704 234.643417,832.697021 234.429565,832.624512 
z"/>
<path fill="#00853E" opacity="1.000000" stroke="none" 
	d="
M381.978943,973.006104 
	C381.768585,972.894287 381.689087,972.649780 381.609619,972.405212 
	C381.764221,972.395630 381.918793,972.385986 382.222168,972.491821 
	C382.370972,972.607178 382.109802,972.873291 381.978943,973.006104 
z"/>
<path fill="#000502" opacity="1.000000" stroke="none" 
	d="
M1039.951904,1005.071472 
	C1042.281738,1007.123840 1044.347168,1008.940857 1046.937866,1011.219971 
	C1039.293457,1012.802856 1032.569824,1014.195129 1026.636108,1015.423828 
	C1019.531799,1001.393005 1012.463440,987.433167 1005.395081,973.473328 
	C1005.475952,973.268250 1005.556885,973.063171 1005.637756,972.858093 
	C1016.987671,983.517456 1028.337524,994.176758 1039.951904,1005.071472 
z"/>
<path fill="#000502" opacity="1.000000" stroke="none" 
	d="
M1003.076965,970.924866 
	C1003.076965,970.924866 1002.819275,971.049072 1002.819275,971.049072 
	C1002.819275,971.049072 1002.911255,970.879028 1002.968018,970.923767 
	C1003.024780,970.968506 1003.076965,970.924866 1003.076965,970.924866 
z"/>
<path fill="#000502" opacity="1.000000" stroke="none" 
	d="
M1002.998413,970.990051 
	C1003.094177,971.080872 1003.216370,971.150146 1003.338501,971.219421 
	C1003.216309,971.230347 1003.094116,971.241333 1003.024414,971.088562 
	C1003.076965,970.924866 1003.024780,970.968506 1002.998413,970.990051 
z"/>
<path fill="#040B07" opacity="1.000000" stroke="none" 
	d="
M911.474792,802.928955 
	C914.395081,800.167847 917.713196,800.207581 920.482727,803.500366 
	C923.231079,806.768005 924.454346,810.329346 920.105347,813.638306 
	C919.741150,811.385071 920.012878,809.108215 919.508972,807.018311 
	C919.167297,805.601257 917.987061,803.951172 916.723328,803.311340 
	C915.399353,802.641174 913.527344,803.053650 911.474792,802.928955 
z"/>
<path fill="#040A07" opacity="1.000000" stroke="none" 
	d="
M908.993591,804.942749 
	C909.546326,804.407654 910.002380,804.264771 910.697632,804.131104 
	C910.948059,806.739563 910.970154,809.338867 910.960815,811.937988 
	C910.959106,812.414612 910.829712,812.890747 910.754639,813.398315 
	C907.619812,811.000977 907.492310,810.434570 908.993591,804.942749 
z"/>
</svg>